<svg width="732" height="71" viewBox="0 0 732 71" fill="none" xmlns="http://www.w3.org/2000/svg">
<path d="M19.752 45.864C16.936 44.904 14.376 43.944 12.072 42.984C9.768 41.96 7.784 40.744 6.12 39.336C4.456 37.928 3.144 36.264 2.184 34.344C1.288 32.36 0.84 29.96 0.84 27.144C0.84 21.704 2.92 17.352 7.08 14.088C11.304 10.824 17.192 9.192 24.744 9.192C27.496 9.192 30.056 9.384 32.424 9.768C34.792 10.152 36.808 10.76 38.472 11.592C40.2 12.36 41.544 13.384 42.504 14.664C43.464 15.88 43.944 17.32 43.944 18.984C43.944 20.648 43.56 22.088 42.792 23.304C42.024 24.456 41.096 25.448 40.008 26.28C38.6 25.384 36.712 24.616 34.344 23.976C31.976 23.272 29.384 22.92 26.568 22.92C23.688 22.92 21.576 23.336 20.232 24.168C18.888 24.936 18.216 25.928 18.216 27.144C18.216 28.104 18.632 28.904 19.464 29.544C20.296 30.12 21.544 30.664 23.208 31.176L28.296 32.808C34.312 34.728 38.92 37.192 42.12 40.2C45.384 43.144 47.016 47.176 47.016 52.296C47.016 57.736 44.872 62.152 40.584 65.544C36.296 68.872 29.992 70.536 21.672 70.536C18.728 70.536 15.976 70.28 13.416 69.768C10.92 69.32 8.712 68.648 6.792 67.752C4.936 66.792 3.464 65.64 2.376 64.296C1.352 62.888 0.84 61.288 0.84 59.496C0.84 57.64 1.384 56.072 2.472 54.792C3.56 53.448 4.744 52.424 6.024 51.72C7.816 53.128 9.992 54.344 12.552 55.368C15.176 56.392 18.024 56.904 21.096 56.904C24.232 56.904 26.44 56.424 27.72 55.464C29 54.504 29.64 53.384 29.64 52.104C29.64 50.824 29.128 49.864 28.104 49.224C27.08 48.52 25.64 47.848 23.784 47.208L19.752 45.864ZM103.343 45.672C103.343 49.64 102.735 53.192 101.519 56.328C100.303 59.4 98.5745 61.992 96.3345 64.104C94.1585 66.216 91.5345 67.816 88.4625 68.904C85.3905 69.992 81.9665 70.536 78.1905 70.536C74.4145 70.536 70.9905 69.96 67.9185 68.808C64.8465 67.656 62.1905 66.024 59.9505 63.912C57.7745 61.736 56.0785 59.112 54.8625 56.04C53.6465 52.968 53.0385 49.512 53.0385 45.672C53.0385 41.896 53.6465 38.472 54.8625 35.4C56.0785 32.328 57.7745 29.736 59.9505 27.624C62.1905 25.448 64.8465 23.784 67.9185 22.632C70.9905 21.48 74.4145 20.904 78.1905 20.904C81.9665 20.904 85.3905 21.512 88.4625 22.728C91.5345 23.88 94.1585 25.544 96.3345 27.72C98.5745 29.832 100.303 32.424 101.519 35.496C102.735 38.568 103.343 41.96 103.343 45.672ZM69.7425 45.672C69.7425 49.576 70.4785 52.584 71.9505 54.696C73.4865 56.744 75.5985 57.768 78.2865 57.768C80.9745 57.768 83.0225 56.712 84.4305 54.6C85.9025 52.488 86.6385 49.512 86.6385 45.672C86.6385 41.832 85.9025 38.888 84.4305 36.84C82.9585 34.728 80.8785 33.672 78.1905 33.672C75.5025 33.672 73.4225 34.728 71.9505 36.84C70.4785 38.888 69.7425 41.832 69.7425 45.672ZM111.497 22.344C111.497 19.08 112.041 16.296 113.129 13.992C114.281 11.624 115.817 9.704 117.737 8.232C119.657 6.696 121.897 5.576 124.457 4.872C127.081 4.168 129.865 3.816 132.809 3.816C137.545 3.816 141.033 4.456 143.273 5.736C145.513 6.952 146.633 9.064 146.633 12.072C146.633 13.352 146.345 14.504 145.769 15.528C145.257 16.552 144.681 17.32 144.041 17.832C142.825 17.512 141.545 17.256 140.201 17.064C138.921 16.808 137.417 16.68 135.689 16.68C132.937 16.68 130.793 17.16 129.257 18.12C127.721 19.016 126.953 20.616 126.953 22.92V25.992H142.697C143.081 26.696 143.433 27.592 143.753 28.68C144.137 29.704 144.329 30.856 144.329 32.136C144.329 34.376 143.817 36.008 142.793 37.032C141.833 37.992 140.521 38.472 138.857 38.472H127.817V68.904C127.177 69.096 126.153 69.288 124.745 69.48C123.401 69.672 121.993 69.768 120.521 69.768C119.113 69.768 117.833 69.672 116.681 69.48C115.593 69.288 114.665 68.904 113.897 68.328C113.129 67.752 112.521 66.984 112.073 66.024C111.689 65 111.497 63.688 111.497 62.088V22.344ZM168.406 52.968C168.406 54.632 168.918 55.816 169.942 56.52C171.03 57.224 172.534 57.576 174.454 57.576C175.414 57.576 176.406 57.512 177.43 57.384C178.454 57.192 179.35 56.968 180.118 56.712C180.694 57.416 181.174 58.216 181.558 59.112C182.006 59.944 182.23 60.968 182.23 62.184C182.23 64.616 181.302 66.6 179.446 68.136C177.654 69.672 174.454 70.44 169.846 70.44C164.214 70.44 159.862 69.16 156.79 66.6C153.782 64.04 152.278 59.88 152.278 54.12V13.032C152.982 12.84 153.974 12.648 155.254 12.456C156.598 12.2 158.006 12.072 159.478 12.072C162.294 12.072 164.47 12.584 166.006 13.608C167.606 14.568 168.406 16.648 168.406 19.848V25.992H180.982C181.366 26.696 181.718 27.592 182.038 28.68C182.422 29.704 182.614 30.856 182.614 32.136C182.614 34.376 182.102 36.008 181.078 37.032C180.118 37.992 178.806 38.472 177.142 38.472H168.406V52.968ZM208.091 57C208.987 57.256 210.139 57.448 211.547 57.576C212.955 57.64 214.299 57.672 215.579 57.672C218.139 57.672 220.251 57.16 221.915 56.136C223.643 55.048 224.507 53.384 224.507 51.144C224.507 49.032 223.803 47.528 222.395 46.632C220.987 45.736 218.843 45.288 215.963 45.288H208.091V57ZM208.091 33.576H215.099C217.851 33.576 219.835 33.064 221.051 32.04C222.331 31.016 222.971 29.512 222.971 27.528C222.971 25.8 222.235 24.424 220.763 23.4C219.355 22.376 217.211 21.864 214.331 21.864C213.371 21.864 212.251 21.896 210.971 21.96C209.755 22.024 208.795 22.12 208.091 22.248V33.576ZM214.331 70.536C213.243 70.536 211.963 70.504 210.491 70.44C209.019 70.376 207.483 70.248 205.883 70.056C204.347 69.864 202.811 69.608 201.275 69.288C199.739 69.032 198.331 68.648 197.051 68.136C193.531 66.792 191.771 64.456 191.771 61.128V16.296C191.771 14.952 192.123 13.928 192.827 13.224C193.595 12.456 194.619 11.848 195.899 11.4C198.075 10.632 200.795 10.088 204.059 9.768C207.323 9.384 210.683 9.192 214.139 9.192C222.331 9.192 228.635 10.568 233.051 13.32C237.467 16.072 239.675 20.328 239.675 26.088C239.675 28.968 238.843 31.464 237.179 33.576C235.515 35.624 233.275 37.128 230.459 38.088C233.659 38.984 236.315 40.616 238.427 42.984C240.603 45.352 241.691 48.328 241.691 51.912C241.691 58.248 239.323 62.952 234.587 66.024C229.915 69.032 223.163 70.536 214.331 70.536ZM269.929 58.632C271.017 58.632 272.201 58.536 273.481 58.344C274.825 58.088 275.817 57.768 276.457 57.384V49.704L269.545 50.28C267.753 50.408 266.281 50.792 265.129 51.432C263.977 52.072 263.401 53.032 263.401 54.312C263.401 55.592 263.881 56.648 264.841 57.48C265.865 58.248 267.561 58.632 269.929 58.632ZM269.161 20.904C272.617 20.904 275.753 21.256 278.569 21.96C281.449 22.664 283.881 23.752 285.865 25.224C287.913 26.632 289.481 28.456 290.569 30.696C291.657 32.872 292.201 35.464 292.201 38.472V59.976C292.201 61.64 291.721 63.016 290.761 64.104C289.865 65.128 288.777 66.024 287.497 66.792C283.337 69.288 277.481 70.536 269.929 70.536C266.537 70.536 263.465 70.216 260.713 69.576C258.025 68.936 255.689 67.976 253.705 66.696C251.785 65.416 250.281 63.784 249.193 61.8C248.169 59.816 247.657 57.512 247.657 54.888C247.657 50.472 248.969 47.08 251.593 44.712C254.217 42.344 258.281 40.872 263.785 40.296L276.361 38.952V38.28C276.361 36.424 275.529 35.112 273.865 34.344C272.265 33.512 269.929 33.096 266.857 33.096C264.425 33.096 262.057 33.352 259.753 33.864C257.449 34.376 255.369 35.016 253.513 35.784C252.681 35.208 251.977 34.344 251.401 33.192C250.825 31.976 250.537 30.728 250.537 29.448C250.537 27.784 250.921 26.472 251.689 25.512C252.521 24.488 253.769 23.624 255.433 22.92C257.289 22.216 259.465 21.704 261.961 21.384C264.521 21.064 266.921 20.904 269.161 20.904ZM331.748 39.432C331.748 37.448 331.172 36.008 330.02 35.112C328.932 34.152 327.428 33.672 325.508 33.672C324.228 33.672 322.948 33.832 321.668 34.152C320.452 34.472 319.396 34.952 318.5 35.592V68.904C317.86 69.096 316.836 69.288 315.428 69.48C314.084 69.672 312.676 69.768 311.204 69.768C309.796 69.768 308.516 69.672 307.364 69.48C306.276 69.288 305.348 68.904 304.58 68.328C303.812 67.752 303.204 66.984 302.756 66.024C302.372 65 302.18 63.688 302.18 62.088V33.288C302.18 31.56 302.532 30.152 303.236 29.064C304.004 27.976 305.028 26.984 306.308 26.088C308.484 24.552 311.204 23.304 314.468 22.344C317.796 21.384 321.476 20.904 325.508 20.904C332.74 20.904 338.308 22.504 342.212 25.704C346.116 28.84 348.068 33.224 348.068 38.856V68.904C347.428 69.096 346.404 69.288 344.996 69.48C343.652 69.672 342.244 69.768 340.772 69.768C339.364 69.768 338.084 69.672 336.932 69.48C335.844 69.288 334.916 68.904 334.148 68.328C333.38 67.752 332.772 66.984 332.324 66.024C331.94 65 331.748 63.688 331.748 62.088V39.432ZM378.116 58.632C379.204 58.632 380.388 58.536 381.668 58.344C383.012 58.088 384.004 57.768 384.644 57.384V49.704L377.732 50.28C375.94 50.408 374.468 50.792 373.316 51.432C372.164 52.072 371.588 53.032 371.588 54.312C371.588 55.592 372.068 56.648 373.028 57.48C374.052 58.248 375.748 58.632 378.116 58.632ZM377.348 20.904C380.804 20.904 383.94 21.256 386.756 21.96C389.636 22.664 392.068 23.752 394.052 25.224C396.1 26.632 397.668 28.456 398.756 30.696C399.844 32.872 400.388 35.464 400.388 38.472V59.976C400.388 61.64 399.908 63.016 398.948 64.104C398.052 65.128 396.964 66.024 395.684 66.792C391.524 69.288 385.668 70.536 378.116 70.536C374.724 70.536 371.652 70.216 368.9 69.576C366.212 68.936 363.876 67.976 361.892 66.696C359.972 65.416 358.468 63.784 357.38 61.8C356.356 59.816 355.844 57.512 355.844 54.888C355.844 50.472 357.156 47.08 359.78 44.712C362.404 42.344 366.468 40.872 371.972 40.296L384.548 38.952V38.28C384.548 36.424 383.716 35.112 382.052 34.344C380.452 33.512 378.116 33.096 375.044 33.096C372.612 33.096 370.244 33.352 367.94 33.864C365.636 34.376 363.556 35.016 361.7 35.784C360.868 35.208 360.164 34.344 359.588 33.192C359.012 31.976 358.724 30.728 358.724 29.448C358.724 27.784 359.108 26.472 359.876 25.512C360.708 24.488 361.956 23.624 363.62 22.92C365.476 22.216 367.652 21.704 370.148 21.384C372.708 21.064 375.108 20.904 377.348 20.904ZM439.935 39.432C439.935 37.448 439.359 36.008 438.207 35.112C437.119 34.152 435.615 33.672 433.695 33.672C432.415 33.672 431.135 33.832 429.855 34.152C428.639 34.472 427.583 34.952 426.687 35.592V68.904C426.047 69.096 425.023 69.288 423.615 69.48C422.271 69.672 420.863 69.768 419.391 69.768C417.983 69.768 416.703 69.672 415.551 69.48C414.463 69.288 413.535 68.904 412.767 68.328C411.999 67.752 411.391 66.984 410.943 66.024C410.559 65 410.367 63.688 410.367 62.088V33.288C410.367 31.56 410.719 30.152 411.423 29.064C412.191 27.976 413.215 26.984 414.495 26.088C416.671 24.552 419.391 23.304 422.655 22.344C425.983 21.384 429.663 20.904 433.695 20.904C440.927 20.904 446.495 22.504 450.399 25.704C454.303 28.84 456.255 33.224 456.255 38.856V68.904C455.615 69.096 454.591 69.288 453.183 69.48C451.839 69.672 450.431 69.768 448.959 69.768C447.551 69.768 446.271 69.672 445.119 69.48C444.031 69.288 443.103 68.904 442.335 68.328C441.567 67.752 440.959 66.984 440.511 66.024C440.127 65 439.935 63.688 439.935 62.088V39.432ZM486.304 58.632C487.392 58.632 488.576 58.536 489.856 58.344C491.2 58.088 492.192 57.768 492.832 57.384V49.704L485.92 50.28C484.128 50.408 482.656 50.792 481.504 51.432C480.352 52.072 479.776 53.032 479.776 54.312C479.776 55.592 480.256 56.648 481.216 57.48C482.24 58.248 483.936 58.632 486.304 58.632ZM485.536 20.904C488.992 20.904 492.128 21.256 494.944 21.96C497.824 22.664 500.256 23.752 502.24 25.224C504.288 26.632 505.856 28.456 506.944 30.696C508.032 32.872 508.576 35.464 508.576 38.472V59.976C508.576 61.64 508.096 63.016 507.136 64.104C506.24 65.128 505.152 66.024 503.872 66.792C499.712 69.288 493.856 70.536 486.304 70.536C482.912 70.536 479.84 70.216 477.088 69.576C474.4 68.936 472.064 67.976 470.08 66.696C468.16 65.416 466.656 63.784 465.568 61.8C464.544 59.816 464.032 57.512 464.032 54.888C464.032 50.472 465.344 47.08 467.968 44.712C470.592 42.344 474.656 40.872 480.16 40.296L492.736 38.952V38.28C492.736 36.424 491.904 35.112 490.24 34.344C488.64 33.512 486.304 33.096 483.232 33.096C480.8 33.096 478.432 33.352 476.128 33.864C473.824 34.376 471.744 35.016 469.888 35.784C469.056 35.208 468.352 34.344 467.776 33.192C467.2 31.976 466.912 30.728 466.912 29.448C466.912 27.784 467.296 26.472 468.064 25.512C468.896 24.488 470.144 23.624 471.808 22.92C473.664 22.216 475.84 21.704 478.336 21.384C480.896 21.064 483.296 20.904 485.536 20.904ZM557.915 55.08C557.915 59.944 556.091 63.752 552.443 66.504C548.795 69.256 543.419 70.632 536.315 70.632C533.627 70.632 531.131 70.44 528.827 70.056C526.523 69.672 524.539 69.096 522.875 68.328C521.275 67.496 519.995 66.472 519.035 65.256C518.139 64.04 517.691 62.6 517.691 60.936C517.691 59.4 518.011 58.12 518.651 57.096C519.291 56.008 520.059 55.112 520.955 54.408C522.811 55.432 524.923 56.36 527.291 57.192C529.723 57.96 532.507 58.344 535.643 58.344C537.627 58.344 539.131 58.056 540.155 57.48C541.243 56.904 541.786 56.136 541.786 55.176C541.786 54.28 541.403 53.576 540.635 53.064C539.867 52.552 538.587 52.136 536.795 51.816L533.915 51.24C528.347 50.152 524.187 48.456 521.435 46.152C518.747 43.784 517.403 40.424 517.403 36.072C517.403 33.704 517.915 31.56 518.939 29.64C519.963 27.72 521.403 26.12 523.259 24.84C525.115 23.56 527.323 22.568 529.883 21.864C532.507 21.16 535.387 20.808 538.523 20.808C540.891 20.808 543.099 21 545.147 21.384C547.259 21.704 549.083 22.216 550.619 22.92C552.155 23.624 553.371 24.552 554.267 25.704C555.163 26.792 555.611 28.104 555.611 29.64C555.611 31.112 555.323 32.392 554.747 33.48C554.235 34.504 553.563 35.368 552.731 36.072C552.219 35.752 551.451 35.432 550.427 35.112C549.403 34.728 548.283 34.408 547.067 34.152C545.851 33.832 544.603 33.576 543.323 33.384C542.107 33.192 540.987 33.096 539.963 33.096C537.851 33.096 536.219 33.352 535.067 33.864C533.915 34.312 533.339 35.048 533.339 36.072C533.339 36.776 533.659 37.352 534.299 37.8C534.939 38.248 536.155 38.664 537.947 39.048L540.923 39.72C547.067 41.128 551.419 43.08 553.979 45.576C556.603 48.008 557.915 51.176 557.915 55.08ZM584.639 9.384C584.639 6.952 585.439 4.904 587.039 3.23999C588.703 1.576 590.879 0.743998 593.567 0.743998C596.255 0.743998 598.399 1.576 599.999 3.23999C601.663 4.904 602.495 6.952 602.495 9.384C602.495 11.816 601.663 13.864 599.999 15.528C598.399 17.192 596.255 18.024 593.567 18.024C590.879 18.024 588.703 17.192 587.039 15.528C585.439 13.864 584.639 11.816 584.639 9.384ZM601.727 68.904C601.023 69.032 599.967 69.192 598.559 69.384C597.215 69.64 595.839 69.768 594.431 69.768C593.023 69.768 591.743 69.672 590.591 69.48C589.503 69.288 588.575 68.904 587.807 68.328C587.039 67.752 586.431 66.984 585.983 66.024C585.599 65 585.407 63.688 585.407 62.088V23.016C586.111 22.888 587.135 22.728 588.479 22.536C589.887 22.28 591.295 22.152 592.703 22.152C594.111 22.152 595.359 22.248 596.447 22.44C597.599 22.632 598.559 23.016 599.327 23.592C600.095 24.168 600.671 24.968 601.055 25.992C601.503 26.952 601.727 28.232 601.727 29.832V68.904ZM641.685 39.432C641.685 37.448 641.109 36.008 639.957 35.112C638.869 34.152 637.365 33.672 635.445 33.672C634.165 33.672 632.885 33.832 631.605 34.152C630.389 34.472 629.333 34.952 628.437 35.592V68.904C627.797 69.096 626.773 69.288 625.365 69.48C624.021 69.672 622.613 69.768 621.141 69.768C619.733 69.768 618.453 69.672 617.301 69.48C616.213 69.288 615.285 68.904 614.517 68.328C613.749 67.752 613.141 66.984 612.693 66.024C612.309 65 612.117 63.688 612.117 62.088V33.288C612.117 31.56 612.469 30.152 613.173 29.064C613.941 27.976 614.965 26.984 616.245 26.088C618.421 24.552 621.141 23.304 624.405 22.344C627.733 21.384 631.413 20.904 635.445 20.904C642.677 20.904 648.245 22.504 652.149 25.704C656.053 28.84 658.005 33.224 658.005 38.856V68.904C657.365 69.096 656.341 69.288 654.933 69.48C653.589 69.672 652.181 69.768 650.709 69.768C649.301 69.768 648.021 69.672 646.869 69.48C645.781 69.288 644.853 68.904 644.085 68.328C643.317 67.752 642.709 66.984 642.261 66.024C641.877 65 641.685 63.688 641.685 62.088V39.432ZM694.39 33.768C692.79 33.768 691.254 34.024 689.782 34.536C688.374 35.048 687.126 35.816 686.038 36.84C685.014 37.8 684.182 39.016 683.542 40.488C682.902 41.96 682.582 43.688 682.582 45.672C682.582 49.64 683.702 52.616 685.942 54.6C688.246 56.584 691.03 57.576 694.294 57.576C696.214 57.576 697.878 57.352 699.286 56.904C700.694 56.456 701.942 55.976 703.03 55.464C704.31 56.36 705.27 57.352 705.91 58.44C706.55 59.464 706.87 60.712 706.87 62.184C706.87 64.808 705.622 66.856 703.126 68.328C700.63 69.736 697.174 70.44 692.758 70.44C688.726 70.44 685.078 69.864 681.814 68.712C678.55 67.496 675.734 65.832 673.366 63.72C671.062 61.544 669.27 58.952 667.99 55.944C666.71 52.936 666.07 49.608 666.07 45.96C666.07 41.736 666.742 38.056 668.086 34.92C669.494 31.72 671.382 29.096 673.75 27.048C676.118 25 678.838 23.464 681.91 22.44C685.046 21.416 688.342 20.904 691.798 20.904C696.406 20.904 699.958 21.736 702.454 23.4C704.95 25.064 706.198 27.208 706.198 29.832C706.198 31.048 705.91 32.2 705.334 33.288C704.758 34.312 704.086 35.208 703.318 35.976C702.23 35.464 700.918 34.984 699.382 34.536C697.846 34.024 696.182 33.768 694.39 33.768ZM713.112 61.224C713.112 58.536 713.944 56.296 715.608 54.504C717.272 52.712 719.544 51.816 722.424 51.816C725.304 51.816 727.576 52.712 729.24 54.504C730.904 56.296 731.736 58.536 731.736 61.224C731.736 63.912 730.904 66.152 729.24 67.944C727.576 69.736 725.304 70.632 722.424 70.632C719.544 70.632 717.272 69.736 715.608 67.944C713.944 66.152 713.112 63.912 713.112 61.224Z" fill="url(#paint0_linear_602_90)"/>
<defs>
<linearGradient id="paint0_linear_602_90" x1="378" y1="7.5" x2="378" y2="69" gradientUnits="userSpaceOnUse">
<stop stop-color="#5C0183"/>
<stop offset="1" stop-color="#8800D9"/>
</linearGradient>
</defs>
</svg>
